<?xml version="1.0" encoding="UTF-8"?>
<svg xmlns="http://www.w3.org/2000/svg" viewBox="0 0 1280 800">
  <path d="M 196.04782,518.71894 C 196.04782,518.71894 174.4239,498.72406 174.4239,498.72406 C 174.2109,498.46936 174.14239,498.16596 174.18566,497.88381 C 174.18529,497.87226999999996 174.18511,497.86068 174.18511,497.84905 C 174.18511,497.84905 174.18511,449.16204 174.18511,449.16204 C 174.14175,448.87233 174.21601,448.56104999999997 174.44233,448.30451 C 174.44233,448.30451 196.05067,423.81123 196.05067,423.81123 L 366.17981,423.81123 L 366.17981,423.802 L 599.86122,423.802 L 608.6695,431.92763 L 686.99974,431.92763 L 695.80802,423.802 L 761.49117,423.802 L 969.40732,235.2653 L 1074.61517,235.2653 L 1128.06707,175.31779 L 1177.15845,175.31779 L 1177.15845,175.50797 L 1683,175.50797 L 1683,518.71894 L 1149.5366,518.71894 L 1149.5366,518.52875 L 1042.58663,518.52875 L 1042.58663,518.67897 L 716.37478,518.67897 L 716.37478,518.71894 L 612,518.71894 C 612,518.71894 612.40725,731.88835 612.40725,731.88835 C 612.40777,731.9823899999999 612.3986199999999,732.07374 612.38092,732.16096 C 612.38041,732.42226 612.3040900000001,732.6840699999999 612.1497,732.89303 C 612.1497,732.89303 570.04466,775.88339 570.04466,775.88339 L 562.86872,770.06502 L 603.3924,729.21503 L 603,518.71894 Z M 605.56849,449.0497 L 590.25723,433.60925 L 567.73459,433.60925 L 567.74932,438.65078 L 585.81499,456.86888 L 641.99371,456.86888 L 649.74747,449.0497 Z" fill="#6b6b6b" fill-rule="evenodd"/>
</svg>
