<?xml version="1.0" encoding="UTF-8"?>
<svg xmlns="http://www.w3.org/2000/svg" viewBox="0 0 1280 800">
  <path d="M 197.56856,518.71894 C 197.56856,518.71894 175.94464,498.72406 175.94464,498.72406 C 175.73164,498.46936 175.66313,498.16596 175.7064,497.88381 C 175.70603,497.87226999999996 175.70585,497.86068 175.70585,497.84905 C 175.70585,497.84905 175.70585,449.16204 175.70585,449.16204 C 175.66249,448.87233 175.73675,448.56104999999997 175.96307,448.30451 C 175.96307,448.30451 197.57141,423.81123 197.57141,423.81123 L 395.88041,423.81123 L 395.88041,423.802 L 627.18502,423.802 L 635.9933,431.92763 L 716.70034,431.92763 L 725.50862,423.802 L 791.19177,423.802 L 999.10792,235.2653 L 1104.31577,235.2653 L 1157.76767,175.31779 L 1206.85905,175.31779 L 1206.85905,175.50797 L 1712.7006,175.50797 L 1712.7006,518.71894 L 1179.2372,518.71894 L 1179.2372,518.52875 L 1072.28723,518.52875 L 1072.28723,518.67897 L 746.07538,518.67897 L 746.07538,518.71894 L 641.7006,518.71894 C 641.7006,518.71894 642.10785,731.88835 642.10785,731.88835 C 642.10837,731.9823899999999 642.09922,732.07374 642.08152,732.16096 C 642.08101,732.42226 642.00469,732.6840699999999 641.8503,732.89303 C 641.8503,732.89303 599.74526,775.88339 599.74526,775.88339 L 592.56932,770.06502 L 633.093,729.21503 L 632.7006,518.71894 Z M 632.89229,449.0497 L 617.58103,433.60925 L 595.05839,433.60925 L 595.07312,438.65078 L 613.13879,456.86888 L 669.31751,456.86888 L 677.07127,449.0497 Z" fill="#6b6b6b" fill-rule="evenodd"/>
</svg>
