<?xml version="1.0" encoding="UTF-8"?>
<svg xmlns="http://www.w3.org/2000/svg" viewBox="0 0 1280 800">
  <path d="M 47.64405,679.34027 C 47.64405,679.34027 36.72099,666.27836 36.72099,666.27836 C 36.50799,666.0236600000001 36.43948,665.72026 36.48275,665.43811 C 36.482380000000006,665.4265700000001 36.4822,665.41498 36.4822,665.40335 C 36.4822,665.40335 36.4822,642.30187 36.4822,642.30187 C 36.43884,642.01216 36.5131,641.70088 36.73942,641.44434 C 36.73942,641.44434 58.34776,616.95106 58.34776,616.95106 L 228.4769,616.95106 L 260.73248,584.42333 L 462.15831,584.42333 L 470.96659,592.54896 L 549.29683,592.54896 L 558.10511,584.42333 L 652.10319,584.42333 L 860.01934,395.88663 L 954.90515,395.88663 L 1008.35705,335.93912 L 1039.45554,335.93912 L 1039.45554,336.1293 L 1545.29709,336.1293 L 1545.29709,679.34027 L 1011.83369,679.34027 L 1011.83369,679.15008 L 904.88372,679.15008 L 904.88372,679.3003 L 578.67187,679.3003 L 578.67187,679.34027 L 473.07157,679.34027 C 473.07157,679.34027 473.47882,752.68415 473.47882,752.68415 C 473.47934,752.77819 473.47019,752.86954 473.45249,752.95676 C 473.45198,753.21806 473.37566,753.47987 473.22127,753.68883 C 473.22127,753.68883 431.11623,810.67764 431.11623,810.67764 L 425.84707,804.85927 L 466.37075,750.01083 L 465.97835,679.34027 Z M 467.86558,609.67103 L 452.55432,594.23058 L 430.03168,594.23058 L 430.04641,599.27211 L 448.11208,617.49021 L 504.2908,617.49021 L 512.04456,609.67103 Z" fill="#6b6b6b" fill-rule="evenodd"/>
</svg>
