<?xml version="1.0" encoding="UTF-8"?>
<svg xmlns="http://www.w3.org/2000/svg" viewBox="0 0 1280 800">
  <path d="M 196.04782,645.61791 C 196.04782,645.61791 174.4239,625.62303 174.4239,625.62303 C 174.2109,625.36833 174.14239,625.06493 174.18566,624.78278 C 174.18529,624.77124 174.18511,624.75965 174.18511,624.74802 C 174.18511,624.74802 174.18511,576.06101 174.18511,576.06101 C 174.14175,575.7713 174.21601,575.46002 174.44233,575.20348 C 174.44233,575.20348 196.05067,550.7102 196.05067,550.7102 L 366.17981,550.7102 L 366.17981,550.70097 L 599.86122,550.70097 L 608.6695,558.8266 L 686.99974,558.8266 L 695.80802,550.70097 L 761.49117,550.70097 L 969.40732,362.16427 L 1074.61517,362.16427 L 1128.06707,302.21676 L 1177.15845,302.21676 L 1177.15845,302.40694 L 1683,302.40694 L 1683,645.61791 L 1149.5366,645.61791 L 1149.5366,645.42772 L 1042.58663,645.42772 L 1042.58663,645.57794 L 716.37478,645.57794 L 716.37478,645.61791 L 610.77448,645.61791 C 610.77448,645.61791 611.18173,732.96024 611.18173,732.96024 C 611.1822500000001,733.05428 611.1731,733.14563 611.1554,733.23285 C 611.15489,733.49415 611.07857,733.75596 610.92418,733.96492 C 610.92418,733.96492 568.81914,776.95528 568.81914,776.95528 L 563.54998,771.13691 L 604.07366,730.28692 L 603.68126,645.61791 Z M 605.56849,575.94867 L 590.25723,560.50822 L 567.73459,560.50822 L 567.74932,565.54975 L 585.81499,583.76785 L 641.99371,583.76785 L 649.74747,575.94867 Z" fill="#6b6b6b" fill-rule="evenodd"/>
</svg>
