<?xml version="1.0" encoding="UTF-8" standalone="no"?>
<svg
   width="136.395"
   height="77.349297"
   viewBox="0 0 136.395 77.349297"
   fill="none"
   version="1.1"
   id="svg44"
   sodipodi:docname="Type_Standard_Brand_UP_State_White_ysh3yt.svg"
   inkscape:version="1.2.2 (732a01da63, 2022-12-09)"
   xmlns:inkscape="http://www.inkscape.org/namespaces/inkscape"
   xmlns:sodipodi="http://sodipodi.sourceforge.net/DTD/sodipodi-0.dtd"
   xmlns="http://www.w3.org/2000/svg"
   xmlns:svg="http://www.w3.org/2000/svg">
  <defs
     id="defs48" />
  <sodipodi:namedview
     id="namedview46"
     pagecolor="#ffffff"
     bordercolor="#000000"
     borderopacity="0.25"
     inkscape:showpageshadow="2"
     inkscape:pageopacity="0.0"
     inkscape:pagecheckerboard="0"
     inkscape:deskcolor="#d1d1d1"
     showgrid="false"
     inkscape:zoom="4.6718147"
     inkscape:cx="129.60702"
     inkscape:cy="40.455372"
     inkscape:window-width="1920"
     inkscape:window-height="1017"
     inkscape:window-x="-8"
     inkscape:window-y="-8"
     inkscape:window-maximized="1"
     inkscape:current-layer="svg44" />
  <path
     fill-rule="evenodd"
     clip-rule="evenodd"
     d="m 62.2933,59.3147 c -1.5253,3.7226 -3.7093,6.9146 -6.544,9.576 -2.8346,2.6586 -6.2586,4.7333 -10.2666,6.224 -4.008,1.4906 -8.4587,2.2346 -13.352,2.2346 -4.9654,0 -9.4347,-0.744 -13.4054,-2.2346 C 14.752,73.624 11.384,71.5493 8.61867,68.8907 5.85067,66.2293 3.72267,63.0373 2.232,59.3147 0.744,55.5893 0,51.4613 0,46.92 V 0 h 18.1947 v 45.4293 c 0,2.0587 0.2613,4.008 0.792,5.8507 0.5306,1.848 1.3413,3.496 2.4373,4.9493 1.096,1.4534 2.5467,2.6054 4.3493,3.4587 1.8,0.8507 3.9734,1.2773 6.5147,1.2773 2.5467,0 4.7173,-0.4266 6.52,-1.2773 1.8027,-0.8533 3.2693,-2.0053 4.4,-3.4587 1.1307,-1.4533 1.9413,-3.1013 2.4347,-4.9493 0.496,-1.8427 0.744,-3.792 0.744,-5.8507 V 0 h 18.192 v 46.92 c 0,4.5413 -0.7627,8.6693 -2.2854,12.3947 z"
     fill="#FEFEFE"
     id="path40"
     style="fill:#000000" />
  <path
     fill-rule="evenodd"
     clip-rule="evenodd"
     d="m 136.395,23.193 c 0,4.3973 -0.816,8.104 -2.448,11.1173 -1.629,3.0187 -3.829,5.448 -6.592,7.288 -2.768,1.8453 -5.96,3.192 -9.579,4.0453 -3.618,0.8507 -7.376,1.2747 -11.277,1.2747 h -9.0426 v 28.408 H 79.2617 V 9.76562e-4 h 27.6643 c 4.112,0 7.96,0.408000438 11.541,1.221333438 3.581,0.816 6.704,2.128 9.363,3.936 2.661,1.81067 4.752,4.18667 6.277,7.13069 1.525,2.944 2.288,6.5786 2.288,10.904 z m -18.194,0.1063 c 0,-1.7706 -0.355,-3.2266 -1.061,-4.3626 -0.71,-1.1334 -1.667,-2.0214 -2.875,-2.6587 -1.205,-0.6373 -2.571,-1.064 -4.096,-1.2773 -1.525,-0.2134 -3.101,-0.32 -4.733,-0.32 h -7.979 v 17.7706 h 7.659 c 1.704,0 3.333,-0.1413 4.896,-0.4266 1.557,-0.2827 2.96,-0.7814 4.202,-1.488 1.24,-0.7094 2.216,-1.6507 2.926,-2.8214 0.706,-1.1706 1.061,-2.6426 1.061,-4.416 z"
     fill="#FEFEFE"
     id="path42"
     style="fill:#000000" />
</svg>
